<?xml version="1.0" encoding="UTF-8" standalone="no"?>
<!-- Created with Inkscape (http://www.inkscape.org/) -->

<svg
   xmlns:dc="http://purl.org/dc/elements/1.1/"
   xmlns:cc="http://creativecommons.org/ns#"
   xmlns:rdf="http://www.w3.org/1999/02/22-rdf-syntax-ns#"
   xmlns:svg="http://www.w3.org/2000/svg"
   xmlns="http://www.w3.org/2000/svg"
   xmlns:sodipodi="http://sodipodi.sourceforge.net/DTD/sodipodi-0.dtd"
   xmlns:inkscape="http://www.inkscape.org/namespaces/inkscape"
   width="139.86659mm"
   height="117.98066mm"
   viewBox="0 0 495.59029 418.0417"
   id="svg2"
   version="1.1"
   inkscape:version="0.91 r"
   sodipodi:docname="Zauberhut.svg">
  <defs
     id="defs4">
    <inkscape:path-effect
       effect="skeletal"
       id="path-effect4164"
       is_visible="true"
       pattern="M 0,0 1,0"
       copytype="single_stretched"
       prop_scale="1.08"
       scale_y_rel="false"
       spacing="0"
       normal_offset="0"
       tang_offset="0"
       prop_units="false"
       vertical_pattern="false"
       fuse_tolerance="0" />
    <inkscape:path-effect
       effect="bend_path"
       id="path-effect4156"
       is_visible="true"
       bendpath="m 135.58772,440.7724 450.16186,0"
       prop_scale="1.23"
       scale_y_rel="false"
       vertical="false" />
    <inkscape:path-effect
       effect="spiro"
       id="path-effect4881"
       is_visible="true" />
    <inkscape:path-effect
       effect="sketch"
       id="path-effect4879"
       is_visible="true"
       nbiter_approxstrokes="5"
       strokelength="100"
       strokelength_rdm="0.3;1"
       strokeoverlap="0.3"
       strokeoverlap_rdm="0.3;1"
       ends_tolerance="0.1;1"
       parallel_offset="5;1"
       tremble_size="5;1"
       tremble_frequency="1"
       nbtangents="5"
       tgt_places_rdmness="1;1"
       tgtscale="10"
       tgtlength="100"
       tgtlength_rdm="0.3;1" />
    <inkscape:path-effect
       effect="bend_path"
       id="path-effect4877"
       is_visible="true"
       bendpath="m 127.98613,455.03257 433.91667,0"
       prop_scale="1"
       scale_y_rel="false"
       vertical="false" />
    <inkscape:path-effect
       effect="gears"
       id="path-effect4875"
       is_visible="true"
       teeth="10"
       phi="5" />
    <marker
       inkscape:stockid="Arrow1Lend"
       orient="auto"
       refY="0"
       refX="0"
       id="Arrow1Lend"
       style="overflow:visible"
       inkscape:isstock="true">
      <path
         id="path4176"
         d="M 0,0 5,-5 -12.5,0 5,5 0,0 Z"
         style="fill:#000000;fill-opacity:1;fill-rule:evenodd;stroke:#000000;stroke-width:1pt;stroke-opacity:1"
         transform="matrix(-0.8,0,0,-0.8,-10,0)"
         inkscape:connector-curvature="0" />
    </marker>
  </defs>
  <sodipodi:namedview
     id="base"
     pagecolor="#ffffff"
     bordercolor="#666666"
     borderopacity="1.0"
     inkscape:pageopacity="0.0"
     inkscape:pageshadow="2"
     inkscape:zoom="1.4142136"
     inkscape:cx="170.49979"
     inkscape:cy="97.438421"
     inkscape:document-units="px"
     inkscape:current-layer="layer4"
     showgrid="false"
     inkscape:window-width="1920"
     inkscape:window-height="1028"
     inkscape:window-x="1280"
     inkscape:window-y="0"
     inkscape:window-maximized="1"
     inkscape:object-paths="true"
     inkscape:snap-intersection-paths="true"
     inkscape:object-nodes="true"
     inkscape:snap-smooth-nodes="false"
     inkscape:snap-midpoints="false"
     inkscape:snap-global="true"
     inkscape:snap-grids="false"
     fit-margin-top="0"
     fit-margin-left="0"
     fit-margin-right="0"
     fit-margin-bottom="0">
    <inkscape:grid
       type="xygrid"
       id="grid4199"
       spacingx="0.1"
       spacingy="0.1"
       originx="-108.4227"
       originy="-387.79651" />
  </sodipodi:namedview>
  <metadata
     id="metadata7">
    <rdf:RDF>
      <cc:Work
         rdf:about="">
        <dc:format>image/svg+xml</dc:format>
        <dc:type
           rdf:resource="http://purl.org/dc/dcmitype/StillImage" />
        <dc:title />
      </cc:Work>
    </rdf:RDF>
  </metadata>
  <g
     inkscape:groupmode="layer"
     id="layer2"
     inkscape:label="Cut"
     style="display:inline"
     transform="translate(-108.4227,-246.52398)">
    <path
       style="fill:#da2c2c;fill-opacity:1;fill-rule:evenodd;stroke:#000000;stroke-width:1px;stroke-linecap:butt;stroke-linejoin:round;stroke-opacity:1"
       d="m 110.6117,553.85192 c -13.717379,39.07374 59.85154,68.69038 78.03429,75.00383 18.18274,6.31345 69.95306,26.5165 133.59267,31.8198 63.63961,5.30331 117.68277,7.32361 175.76655,-16.66751 58.08377,-23.99113 72.2259,-33.0825 88.64088,-45.20433 16.41498,-12.12183 18.80919,-33.39028 15.65737,-40.15356 -6.06092,-13.00571 -12.85735,-21.6243 -39.90103,-38.13326 -25.55127,-15.59792 -58.3363,-26.26397 -112.37947,-27.90547 0,0 1.00502,-16.05733 1.19956,-22.22336 0.19454,-6.16603 -1.31199,-7.34682 -0.51591,-10.2233 0.79608,-2.87648 4.44041,-3.77565 3.71998,-6.44421 -0.72043,-2.66857 -5.68167,-5.7268 -5.41378,-7.19734 0.26789,-1.47054 8.38317,1.8655 9.81246,0.0561 1.4293,-1.80937 -1.54865,-7.36686 -2.81668,-9.77119 -1.26803,-2.40434 -2.91814,-4.28769 -2.54321,-6.1119 0.37493,-1.82422 5.3018,-5.16711 5.77522,-7.40655 0.47342,-2.23944 -0.64718,-2.23238 -1.1211,-3.90536 -0.47392,-1.67298 -2.00674,-2.12139 -1.45209,-5.24017 0.27732,-1.55939 10.41037,-12.62096 21.09579,-27.63624 12.62209,-17.73672 17.39681,-25.42341 25.30047,-38.30648 7.90366,-12.88307 8.51565,-28.06544 3.27402,-39.70105 -5.24163,-11.63561 -20.86158,-31.32991 -33.57143,-41.07143 -12.70985,-9.74152 -25.54603,-18.43684 -40.4961,-19.9477 -14.95007,-1.51086 -20.30738,0.5542 -35.9758,8.10968 -15.66842,7.55548 -25.70815,18.85565 -33.01405,26.68111 -7.3059,7.82545 -11.84319,16.9635 -12.41071,19.27303 -0.52289,1.28275 2.45736,3.50586 5.84054,3.68106 3.38319,0.1752 10.76534,-4.15149 15.71429,-8.11734 4.94895,-3.96585 8.35066,-7.06114 13.00529,-10.08259 4.65463,-3.02146 10.76778,-6.56773 12.65778,-7.22089 1.89,-0.65317 5.1733,0.44739 6.3639,-0.89425 0.66974,-0.7103 2.08153,1.78131 3.14094,2.17813 1.05941,0.39683 1.5769,0.12849 3.36192,-0.48928 1.78502,-0.61777 4.87914,-2.93318 6.54367,-3.92835 1.66453,-0.99517 -1.55583,3.1068 -0.14859,4.92384 0.70362,0.90852 1.94098,0.44755 5.47027,1.33149 3.5293,0.88395 6.33449,2.04461 10.94603,5.40606 4.61153,3.36146 8.63016,6.08524 10.81886,8.08626 2.1887,2.00101 0.1361,2.17999 0.33679,3.47053 0.20069,1.29054 3.17187,2.7751 3.15607,3.56487 -0.0158,0.78977 -3.19868,1.06938 -3.32763,3.08342 -0.12896,2.01403 3.64668,3.11183 3.2327,4.1695 -0.71092,-0.19154 -3.31133,-0.43509 -5.47185,-0.16653 -2.16052,0.26855 -5.70178,0.79463 -7.298,2.03561 -1.59621,1.24099 -0.55572,3.86407 -4.6899,7.2816 -4.13418,3.41753 -8.83656,5.54336 -9.97197,5.06214 -1.13541,-0.48122 -0.76059,-4.84079 -3.03746,-4.79757 -2.27688,0.0432 -6.16995,7.29373 -6.90016,7.38926 -0.73021,0.0955 -3.03296,-2.0236 -6.05654,-0.37683 -3.02358,1.64676 -9.2672,7.5542 -22.33629,11.21912 -13.06909,3.66493 -21.12261,7.20391 -38.54835,17.98884 -17.42575,10.78493 -40.79196,26.67789 -55.24984,54.12673 -14.45787,27.44885 -13.20824,28.18311 -16.63222,38.50273 -2.33995,7.05242 -5.02901,21.00728 -6.78985,28.38958 -51.5355,1.88516 -137.72078,29.01256 -154.3883,76.48972 z"
       id="path4148"
       inkscape:connector-curvature="0"
       sodipodi:nodetypes="sssssssczzzzzzzzzsszzzzzzcczzzcczzszzzzzzczzzzzzzzzzscs" />
  </g>
  <g
     inkscape:groupmode="layer"
     id="layer4"
     inkscape:label="Stars"
     style="display:inline"
     transform="translate(-108.4227,-246.52398)">
    <path
       id="path4625"
       style="fill:#ffe73c;fill-opacity:1;fill-rule:evenodd;stroke:#000000;stroke-width:0.5;stroke-linecap:butt;stroke-linejoin:round;stroke-miterlimit:4;stroke-dasharray:none;stroke-opacity:1;marker-end:"
       d="m 188.23466,497.73258 2.05643,-5.29933 -5.81254,2.13033 -1.95661,4.08983 -7.98149,-0.0615 2.31972,4.04137 m 2.94844,5.06107 2.71333,5.7641 3.40295,-6.62912 8.79464,-2.47488 -2.66415,-2.01239 m 371.13335,102.98365 4.78274,6.03493 5.53632,-10.66289 12.24179,-4.02167 -4.667,-5.44902 m -7.84601,-8.23202 -3.86157,-9.63283 -8.375,12.25 -14.75,2.875 7.79629,6.44512 m -365.54692,12.94216 13.29123,-7.26513 -12.99309,-5.03813 -0.26517,-12.55115 -10.87176,8.30851 -14.23053,-4.77297 3.7176,12.35984 m 5.77715,16.27838 5.89731,9.95274 3.95718,1.55772 2.30499,-6.80679 m -12.15948,-4.70367 -9.302,3.25141 -5.24719,-2.59748 4.74776,-5.16613 m -18.1218,-80.38287 5.70056,4.46128 9.01561,-4.06587 -1.41421,9.45755 7.42462,4.06587 -9.36916,3.53553 -2.82843,8.66206 -5.21491,-8.83883 -12.72793,-0.70711 7.42463,-7.42462 -0.49589,-6.68321 m 318.55637,-17.22645 11.00933,-4.81656 -0.97227,11.49049 11.75565,7.15946 -15.37957,2.2097 -3.85159,7.97206 m -70.51178,27.91578 -4.8726,12.52131 16.625,-10.125 18.375,5.125 -5.03238,-11.76677 M 268.5,588.86221 l 0.125,9.375 9.5,3.125 -9.25,5.625 -0.125,13.5 -7.75,-10.75 -14,1.75 7.75,-9.125 -3.75,-11.5 8.875,4.375 z m 61.75,3.5 7.25,-15.375 6.25,11.875 14.125,-6.5 -6.5,17.25 8,17.25 -18.25,-3.875 -16.875,12.625 1.5,-20.75 -12.25,-10.875 z m -81.52205,-75.08374 c -3.53868,-0.19609 -7.67441,-0.56781 -11.58202,-1.16837 -1.6979,-5.01998 -5.39168,-12.28598 -5.39168,-12.28598 l -7.86657,14.84925 c 0,0 -9.20506,1.06447 -15.64473,4.94974 4.69726,4.4156 12.28598,9.104 12.28598,9.104 0,0 3.70852,6.7437 2.56326,16.35185 6.10258,-6.39014 10.6066,-12.63954 10.6066,-12.63954 l 11.13693,7.95496 2.34808,-6.73617 -3.55129,-2.67344 2.06097,-4.38868 c 0.0809,-0.0468 -1.59014,-0.75975 -3.67324,-2.70566 2.50021,-1.41472 5.23909,-3.31313 5.23909,-3.31313 m 7.63366,17.48844 c -2.76799,3.54647 -10.14299,7.67147 -17.76799,14.92147 3.25,0.625 16.5,0.625 24.625,-2 6.75,2.875 9,12.75 14.25,17.5 1.65715,-10.17162 4.12729,-19.34586 4.12729,-19.34586 M 428.71524,512.5911 c 2.28563,-3.14145 4.23017,-6.67699 4.23017,-6.67699 0,0 -6.919,-0.11051 -8.92722,-0.53033 -2.30175,-2.77695 -6.01041,-8.22011 -6.01041,-8.22011 0,0 -1.48788,4.72445 -2.91681,10.42982 -3.1525,0.79981 -5.6028,0.82578 -8.75045,0.7955 3.12792,3.72622 7.34648,7.53473 7.34648,7.53473 M 290.46345,406.77222 c 0.21209,3.27741 0.95106,16.63893 3.09354,20.47627 3.09359,2.03293 13.78885,3.80402 23.42291,5.39168 -7.69362,9.22639 -22.18547,18.38478 -22.18547,18.38478 l 3.44714,32.17336 c 0,0 -25.16371,-18.73186 -30.17113,-19.61898 0,0 4.32084,-16.76873 8.6622,-29.3202 4.34136,-12.55147 13.73081,-27.48691 13.73081,-27.48691 z m 143.09733,34.50433 c -1.29149,2.46058 -2.03473,3.61277 -3.16649,5.27308 -1.4375,-0.21875 -7.3125,-0.25 -7.3125,-0.25 l 4.59375,7.03125 -2.5,6.96875 c 0,0 6.9375,-1.9375 8.875,-3.3125 2.09375,1.5625 8.03125,3.90625 8.03125,3.90625 l -2.4375,-7.875 5.84375,-4.1875 -7.8125,-1.5625 -1.54197,-4.94244 M 422.67713,330.60039 c 1.02264,-1.3483 1.7399,-2.48815 2.31091,-3.45701 1.03976,1.15614 2.43412,2.2991 3.71875,4.03125 4.44088,-0.45535 4.9683,-0.4939 7.34375,-0.71875 -1.3433,2.1814 -1.94365,3.87661 -3.34375,6.5 1.75615,3.46714 2.92902,4.12729 4.59375,6.96875 -2.27277,-0.22104 -4.61202,-1.16192 -7.1875,-1.75 -1.13798,1.28692 -4.51679,3.73833 -7.8125,5.96875 0.26679,-2.48833 1.09368,-5.81232 1.5625,-7.53125 -1.87493,-0.87518 -5.22272,-2.70188 -6.59375,-3.78125 2.379,-0.95437 4.87318,-2.07663 6.41813,-3.20731 z m -66.28506,18.22102 c 0.21208,1.37074 0.43854,2.30243 0.42888,3.49585 1.85609,-0.70817 6.59631,-2.86867 8.86093,-3.13778 0.41935,1.6825 -1.19324,5.3033 -1.56889,7.91075 1.83406,1.21535 4.92766,2.07713 6.65123,4.77298 -2.01085,0.68501 -7.42152,0.65475 -10.09838,1.08275 0.0766,4.088 -1.21533,5.94412 -3.73441,10.6066 -2.51906,-2.87261 -2.38648,-5.92201 -4.68458,-10.12046 -3.27036,-1.56889 -7.82236,-1.06066 -9.98788,-2.07713 2.29809,-2.62955 6.39156,-5.24233 9.14819,-6.67332 0.0116,-0.88084 -0.0453,-1.82644 -0.23722,-2.88866 m 46.63889,-96.95249 c 2.72016,2.72446 7.09538,8.22663 8.35491,10.10488 -2.80632,1.28163 -7.33623,0.68502 -10.71708,1.03857 -2.38649,4.35312 -4.30893,7.73397 -5.25911,10.6066 -2.2981,-1.90035 -3.13778,-4.83926 -5.89992,-7.33624 -2.85053,0.17678 -7.21054,2.32266 -10.31174,2.00102 l 11.54324,-9.38501 z m 93.54227,31.13421 -5.77263,6.43415 c 0,0 2.09578,3.25595 3.00004,4.81763 0.90426,1.56168 1.65474,2.95324 1.36485,3.42551 -0.28989,0.47227 -3.9046,0.0384 -5.73537,-0.46164 -1.83077,-0.50007 -4.18858,-1.41181 -4.18858,-1.41181 l -4.07733,2.74315 c -1.6832,1.04697 -3.82166,2.25799 -4.43087,1.7046 -0.60921,-0.55339 -0.0221,-3.80094 0.49723,-5.63512 l 1.02755,-3.5359 c 0,0 -1.74857,-1.48046 -3.03165,-2.46376 -1.28308,-0.9833 -3.83021,-2.37821 -3.60617,-3.25925 0.22404,-0.88104 2.3647,-1.10323 3.94479,-1.38968 1.5801,-0.28645 4.78448,-0.37322 4.78448,-0.37322 l 3.056,-8.26005 4.05464,7.91584 8.88877,-0.52136 m -10.00917,96.06077 -9.99647,-11.9743 -20.86752,6.80987 11.50426,-20.27002 -9.4725,-14.97072 16.99144,2.3006 14.14782,-11.60305 0.47182,15.04002 16.93253,4.74169 m -3.45159,5.56603 -13.2171,4.19843 0.49533,15.09324 m -59.7763,49.13658 -16.07138,-8.58083 -15.74252,6.30987 7.25426,-14.64502 -8.2225,-11.34572 12.74144,0.0506 7.77282,-10.60306 4.97182,10.66503 14.65998,0.49594 -10.77114,11.51021 z m -34.36011,80.99794 -20.69638,-13.33083 -25.36752,11.05987 8.37926,-20.39502 -10.0975,-16.59572 19.61644,1.67561 9.77282,-19.60306 7.47182,19.54003 18.65998,1.37094 -13.52114,14.51021 z m 116.73071,26.53133 12.5,-0.25 6,-9.25 4.625,7.875 10.125,0.125 -7.5,9.125 3.875,9.5 -11.375,-3.375 -11.75,7.875 2.75,-13 z m -53.125,42.375 23.375,-1.5 11.625,-19.375 8.25,17 23.25,-0.625 -17.875,20.75 1.625,23.75 -16.125,-13.125 -19.75,15 2.625,-23.625 z"
       inkscape:connector-curvature="0"
       sodipodi:nodetypes="cccccccccccccccccccccccccccccccccccccccccccccccccccccccccccccccccccccccccccccccccccccccccccccccccccccccccccccccczcccccccccccccccccccccccccccccccccccccccccccccsscccsccssscccccccccccccccccccccccccccccccccccccccccccccccccccccccccccc" />
  </g>
  <g
     inkscape:groupmode="layer"
     id="layer5"
     inkscape:label="Dots"
     style="display:inline"
     transform="translate(-108.4227,-246.52398)">
    <path
       id="path4917"
       style="fill:#ffe73c;fill-opacity:1;fill-rule:evenodd;stroke:#000000;stroke-width:0.5;stroke-linecap:butt;stroke-linejoin:round;stroke-miterlimit:4;stroke-dasharray:none;stroke-opacity:1"
       d="m 343.58757,640.10876 c -0.35352,-1.68023 0.92811,-2.54202 1.50263,-2.45363 0.57453,0.0884 2.72538,0.55545 1.72729,2.57582 m -32.01351,-77.04399 c -0.10832,0.99536 0.33362,2.80732 1.53791,2.76312 1.2043,-0.0442 2.27561,-0.85982 1.96645,-2.03195 M 432.05448,318.38241 c 2.90458,0.0472 3.21393,1.50556 3.03716,2.32316 -0.17678,0.81759 -3.6188,2.3309 -4.28427,-1.08846 m 10.78229,-8.95514 c -0.0899,2.17703 -0.70859,3.48076 1.12547,3.2156 1.83406,-0.26517 2.21205,-2.67559 1.34909,-3.44807 m 59.58356,-7.09363 c -0.89778,1.12009 -2.08528,2.08884 -1.17903,2.83884 0.90625,0.75 2.41793,-0.614 2.35775,-0.72624 m 4.44848,25.70324 c -2.52498,-1.477 -5.49373,-2.32075 -5.30623,0.2105 0.1875,2.53125 3.58121,1.329 5.30623,-0.2105 z m -40.85304,67.81169 c -1.95319,-2.41369 -3.26569,-2.85119 -4.20319,-1.28869 -0.9375,1.5625 -0.84884,3.58429 2.62245,3.29215 m -20.5287,23.8641 c -1.71875,-0.0625 -2.21875,1.40625 -1.8125,2.1875 0.40625,0.78125 0.84375,1.5625 1.46875,1.34375 0.625,-0.21875 2.1875,-0.8125 2.03125,-1.71875 -0.15625,-0.90625 -0.65625,-1.53125 -1.09375,-1.6875 -0.4375,-0.15625 -0.59375,-0.125 -0.59375,-0.125 z m 7.73763,8.5667 c -2.14388,0.77705 -2.14388,2.0583 -1.39388,2.4333 0.75,0.375 1.78331,0.41115 2.45415,-0.5913 M 239.02829,480.0236 c 0.7693,1.79183 2.35452,1.8933 2.7764,1.79173 0.42187,-0.10156 2.20081,-1.29756 1.409,-2.42612 M 136.65547,593.12887 c -1.65547,2.04584 -1.49922,2.98334 -0.68672,3.45209 0.8125,0.46875 2.80702,-0.0411 1.99726,-2.41117 m 15.21434,-78.04894 c -0.64416,-2.26465 -0.93142,-2.57401 -0.13593,-3.3916 0.7955,-0.81759 2.54086,-0.11903 3.39175,1.17792 m 370.14047,-9.73674 c -0.37871,2.68099 -0.35975,3.63071 0.30171,3.83456 0.66146,0.20386 2.96861,-0.3034 2.50306,-2.90505 m 23.92112,23.36928 c -1.16262,1.39632 -1.06319,1.84931 -0.38923,2.57851 0.67397,0.72921 2.8333,0.61336 2.59885,-1.05781 M 269.3437,642.72194 c 0.6827,2.43515 1.08045,2.52354 2.03062,2.63402 0.95018,0.11049 2.08206,-0.66945 2.07959,-1.91467 M 376.53453,284.03605 c 0.009,0.99124 -1.28362,2.0386 -2.24286,2.03293 -0.95923,-0.006 -1.97593,-0.91339 -1.99977,-1.85615 -0.0238,-0.94277 1.06966,-2.06012 2.04397,-2.09924 0.97431,-0.0391 2.1898,0.93121 2.19866,1.92246 z m 70.71068,-28.63782 c 0.009,0.99124 -1.28362,2.0386 -2.24286,2.03293 -0.95923,-0.006 -1.97593,-0.91339 -1.99977,-1.85615 -0.0238,-0.94277 1.06966,-2.06012 2.04397,-2.09924 0.97431,-0.0391 2.1898,0.93121 2.19866,1.92246 z m 7.42462,24.39518 c 0.009,0.99124 -1.28362,2.0386 -2.24286,2.03293 -0.95923,-0.006 -1.97593,-0.91339 -1.99977,-1.85615 -0.0238,-0.94277 1.06966,-2.06012 2.04397,-2.09924 0.97431,-0.0391 2.1898,0.93121 2.19866,1.92246 z m 32.52691,28.28427 c 0.009,0.99124 -1.28362,2.0386 -2.24286,2.03293 -0.95923,-0.006 -1.97593,-0.91339 -1.99977,-1.85615 -0.0238,-0.94277 1.06966,-2.06012 2.04397,-2.09924 0.97431,-0.0391 2.1898,0.93121 2.19866,1.92246 z m -41.7193,61.16474 c 0.009,0.99124 -1.28362,2.0386 -2.24286,2.03293 -0.95923,-0.006 -1.97593,-0.91339 -1.99977,-1.85615 -0.0238,-0.94277 1.06966,-2.06012 2.04397,-2.09924 0.97431,-0.0391 2.1898,0.93121 2.19866,1.92246 z m -42.77996,-1.06066 c 0.009,0.99124 -1.28362,2.0386 -2.24286,2.03293 -0.95923,-0.006 -1.97593,-0.91339 -1.99977,-1.85615 -0.0238,-0.94277 1.06966,-2.06012 2.04397,-2.09924 0.97431,-0.0391 2.1898,0.93121 2.19866,1.92246 z m -28.63782,0.35355 c 0.009,0.99124 -1.28362,2.0386 -2.24286,2.03293 -0.95923,-0.006 -1.97593,-0.91339 -1.99977,-1.85615 -0.0238,-0.94277 1.06966,-2.06012 2.04397,-2.09924 0.97431,-0.0391 2.1898,0.93121 2.19866,1.92246 z m -59.04342,27.22361 c 0.009,0.99124 -1.28362,2.0386 -2.24286,2.03293 -0.95923,-0.006 -1.97593,-0.91339 -1.99977,-1.85615 -0.0238,-0.94277 1.06966,-2.06012 2.04397,-2.09924 0.97431,-0.0391 2.1898,0.93121 2.19866,1.92246 z m 12.37437,18.38478 c 0.009,0.99124 -1.28362,2.0386 -2.24286,2.03293 -0.95923,-0.006 -1.97593,-0.91339 -1.99977,-1.85615 -0.0238,-0.94277 1.06966,-2.06012 2.04397,-2.09924 0.97431,-0.0391 2.1898,0.93121 2.19866,1.92246 z m 35.00179,-8.48528 c 0.009,0.99124 -1.28362,2.0386 -2.24286,2.03293 -0.95923,-0.006 -1.97593,-0.91339 -1.99977,-1.85615 -0.0238,-0.94277 1.06966,-2.06012 2.04397,-2.09924 0.97431,-0.0391 2.1898,0.93121 2.19866,1.92246 z m 20.85965,26.87005 c 0.009,0.99124 -1.28362,2.0386 -2.24286,2.03293 -0.95923,-0.006 -1.97593,-0.91339 -1.99977,-1.85615 -0.0238,-0.94277 1.06966,-2.06012 2.04397,-2.09924 0.97431,-0.0391 2.1898,0.93121 2.19866,1.92246 z m 56.92209,63.99317 c 0.009,0.99124 -1.28362,2.0386 -2.24286,2.03293 -0.95923,-0.006 -1.97593,-0.91339 -1.99977,-1.85615 -0.0238,-0.94277 1.06966,-2.06012 2.04397,-2.09924 0.97431,-0.0391 2.1898,0.93121 2.19866,1.92246 z m -12.02081,-13.43503 c 0.009,0.99124 -1.28362,2.0386 -2.24286,2.03293 -0.95923,-0.006 -1.97593,-0.91339 -1.99977,-1.85615 -0.0238,-0.94277 1.06966,-2.06012 2.04397,-2.09924 0.97431,-0.0391 2.1898,0.93121 2.19866,1.92246 z M 322.79442,468.23737 c 0.009,0.99124 -1.28362,2.0386 -2.24286,2.03293 -0.95923,-0.006 -1.97593,-0.91339 -1.99977,-1.85615 -0.0238,-0.94277 1.06966,-2.06012 2.04397,-2.09924 0.97431,-0.0391 2.1898,0.93121 2.19866,1.92246 z m -45.96194,23.33452 c 0.009,0.99124 -1.28362,2.0386 -2.24286,2.03293 -0.95923,-0.006 -1.97593,-0.91339 -1.99977,-1.85615 -0.0238,-0.94277 1.06966,-2.06012 2.04397,-2.09924 0.97431,-0.0391 2.1898,0.93121 2.19866,1.92246 z m 39.95153,-12.02082 c 0.009,0.99124 -1.28362,2.0386 -2.24286,2.03293 -0.95923,-0.006 -1.97593,-0.91339 -1.99977,-1.85615 -0.0238,-0.94277 1.06966,-2.06012 2.04397,-2.09924 0.97431,-0.0391 2.1898,0.93121 2.19866,1.92246 z m 48.79037,32.17336 c 0.009,0.99124 -1.28362,2.0386 -2.24286,2.03293 -0.95923,-0.006 -1.97593,-0.91339 -1.99977,-1.85615 -0.0238,-0.94277 1.06966,-2.06012 2.04397,-2.09924 0.97431,-0.0391 2.1898,0.93121 2.19866,1.92246 z m -233.34524,53.38656 c 0.009,0.99124 -1.28362,2.0386 -2.24286,2.03293 -0.95923,-0.006 -1.97593,-0.91339 -1.99977,-1.85615 -0.0238,-0.94277 1.06966,-2.06012 2.04397,-2.09924 0.97431,-0.0391 2.1898,0.93121 2.19866,1.92246 z m 256.67976,38.18377 c 0.009,0.99124 -1.28362,2.0386 -2.24286,2.03293 -0.95923,-0.006 -1.97593,-0.91339 -1.99977,-1.85615 -0.0238,-0.94277 1.06966,-2.06012 2.04397,-2.09924 0.97431,-0.0391 2.1898,0.93121 2.19866,1.92246 z m 171.38501,-42.95674 c 0.009,0.99124 -1.28362,2.0386 -2.24286,2.03293 -0.95923,-0.006 -1.97593,-0.91339 -1.99977,-1.85615 -0.0238,-0.94277 1.06966,-2.06012 2.04397,-2.09924 0.97431,-0.0391 2.1898,0.93121 2.19866,1.92246 z m 1.60883,-12.96795 c 0.009,0.99124 -0.97112,1.88235 -1.93036,1.87668 -0.95923,-0.006 -2.50718,-0.35089 -2.53102,-1.29365 -0.0238,-0.94277 1.63216,-1.77887 2.60647,-1.81799 0.97431,-0.0391 1.84605,0.24371 1.85491,1.23496 z m -68.28125,-32.0625 c 0.009,0.99124 -1.65862,2.7886 -2.61786,2.78293 -0.95923,-0.006 -1.60093,-1.66339 -1.62477,-2.60615 -0.0238,-0.94277 1.06966,-2.06012 2.04397,-2.09924 0.97431,-0.0391 2.1898,0.93121 2.19866,1.92246 z m -24.9375,42.875 c 0.009,0.99124 -1.59612,2.6636 -2.55536,2.65793 -0.95923,-0.006 -1.97593,-0.91339 -1.99977,-1.85615 -0.0238,-0.94277 1.06966,-2.06012 2.04397,-2.09924 0.97431,-0.0391 2.5023,0.30621 2.51116,1.29746 z m -37.0625,41.375 c 0.009,0.99124 -1.28362,2.0386 -2.24286,2.03293 -0.95923,-0.006 -1.97593,-0.91339 -1.99977,-1.85615 -0.0238,-0.94277 1.06966,-2.06012 2.04397,-2.09924 0.97431,-0.0391 2.1898,0.93121 2.19866,1.92246 z m 4.75,55 c 0.009,0.99124 -1.28362,2.0386 -2.24286,2.03293 -0.95923,-0.006 -1.97593,-0.91339 -1.99977,-1.85615 -0.0238,-0.94277 1.06966,-2.06012 2.04397,-2.09924 0.97431,-0.0391 2.1898,0.93121 2.19866,1.92246 z m 22.75,-27.75 c 0.009,0.99124 -1.28362,2.0386 -2.24286,2.03293 -0.95923,-0.006 -1.97593,-0.91339 -1.99977,-1.85615 -0.0238,-0.94277 1.06966,-2.06012 2.04397,-2.09924 0.97431,-0.0391 2.1898,0.93121 2.19866,1.92246 z m -103.44661,7.06955 c 0.009,0.99124 -1.28362,2.0386 -2.24286,2.03293 -0.95923,-0.006 -1.97593,-0.91339 -1.99977,-1.85615 -0.0238,-0.94277 1.06966,-2.06012 2.04397,-2.09924 0.97431,-0.0391 2.1898,0.93121 2.19866,1.92246 z m 48.08326,-6.98267 c 0.009,0.99124 -1.28362,2.0386 -2.24286,2.03293 -0.95923,-0.006 -1.97593,-0.91339 -1.99977,-1.85615 -0.0238,-0.94277 1.06966,-2.06012 2.04397,-2.09924 0.97431,-0.0391 2.1898,0.93121 2.19866,1.92246 z m -8.42326,-34.32562 c 0.51201,0.9382 -1.27509,3.18002 -2.33125,3.40295 -1.05616,0.22293 -1.89237,-0.36374 -1.99977,-1.23743 -0.1074,-0.87369 1.24773,-1.74951 2.04397,-2.09924 0.79624,-0.34973 1.77504,-1.00448 2.28705,-0.0663 z m -99.33839,21.98874 c 0.009,0.99124 -1.28362,2.0386 -2.24286,2.03293 -0.95923,-0.006 -1.97593,-0.91339 -1.99977,-1.85615 -0.0238,-0.94277 1.06966,-2.06012 2.04397,-2.09924 0.97431,-0.0391 2.1898,0.93121 2.19866,1.92246 z m -79.33261,-14.74051 c 0.009,0.99124 -1.54879,2.25957 -2.50803,2.2539 -0.95923,-0.006 -1.97593,-0.91339 -1.99977,-1.85615 -0.0238,-0.94277 1.06966,-2.06012 2.04397,-2.09924 0.97431,-0.0391 2.45497,0.71024 2.46383,1.70149 z m -64.32509,-23.21558 c 0.009,0.99124 -0.53362,1.7886 -1.49286,1.78293 -0.95923,-0.006 -1.97593,-0.66339 -1.99977,-1.60615 -0.0238,-0.94277 0.88216,-1.87262 1.85647,-1.91174 0.97431,-0.0391 1.6273,0.74371 1.63616,1.73496 z m 93.59947,-73.22128 c 0.009,0.99124 -1.28362,2.0386 -2.24286,2.03293 -0.95923,-0.006 -1.97593,-0.91339 -1.99977,-1.85615 -0.0238,-0.94277 1.06966,-2.06012 2.04397,-2.09924 0.97431,-0.0391 2.1898,0.93121 2.19866,1.92246 z m -45.02141,4.83613 c 0,0.8259 -0.47898,1.76508 -1.32342,1.76508 -0.84446,0 -1.76028,-0.645 -1.76028,-1.47088 -1e-5,-0.8259 0.65885,-1.64251 1.5033,-1.64252 0.84445,0 1.58041,0.52244 1.5804,1.34832 z m -20.96603,20.20806 c 0,0.74444 -0.41187,1.59099 -1.138,1.59099 -0.72613,0 -1.51364,-0.58139 -1.51364,-1.32582 -1e-5,-0.74444 0.56654,-1.48051 1.29267,-1.48052 0.72613,0 1.35898,0.47091 1.35897,1.21535 z"
       inkscape:connector-curvature="0" />
  </g>
  <g
     inkscape:groupmode="layer"
     id="layer3"
     inkscape:label="Knits"
     style="display:inline"
     transform="translate(-108.4227,-246.52398)">
    <path
       style="fill:none;fill-rule:evenodd;stroke:#000000;stroke-width:0.53100002;stroke-linecap:round;stroke-linejoin:round;stroke-miterlimit:4;stroke-dasharray:none;stroke-opacity:1"
       d="m 450.02296,492.61142 c -0.0631,4.48256 -0.64474,7.69236 0.64952,10.24931 m 1.68646,-1.78928 c -0.62697,0.84903 -0.83691,1.08115 -1.68646,1.78928 -7.75806,6.4666 -20.23186,9.42214 -27.9145,11.20372 -15.36529,3.56315 -34.75477,6.02016 -53.74606,6.35615 -18.99129,0.33599 -82.8538,-2.6915 -106.51192,-24.05838 -0.46376,-0.41885 -0.98599,-1.0148 -1.81541,-2.47185 m 188.32822,-47.36716 c -12.20951,-2.01177 -25.27599,-12.39476 -37.798,-8.96903 m 8.58788,-166.28527 c -1.15075,2.21317 -0.26517,2.57132 -2.47831,5.50794 m -11.67034,2.58647 c -0.63516,-4.63091 0.28635,-5.52084 -1.89214,-9.99059 m 44.31276,34.11618 c 7.39561,-0.96701 9.20337,-0.18347 15.70241,-1.095 m -15.79464,8.31361 c 1.73363,-1.22825 14.79903,7.82382 17.42994,7.11196 m -50.3125,41.0625 c -0.85523,-15.19019 -0.17396,-23.78703 -4.49808,-31.36866 m 17.18558,31.49366 c -1.81854,-8.34763 0.005,-17.30588 -7.49916,-34.29209 m 42.16316,-36.15196 c -3.3729,1.56602 -12.40926,4.51062 -16.85497,9.53054 m -9.50093,122.24989 c 1.65989,0.37526 15.78802,-6.59757 21.27998,-7.45159 m -22.53564,17.91241 c 8.46028,-1.92709 6.04801,0.48729 19.15505,-1.1405 m -3.9719,62.94774 c 1.98131,1.47425 3.12886,2.35465 4.417,3.96514 1.28815,1.61049 1.74461,2.1833 2.43215,3.61691 0.82502,1.72028 2.00391,3.68383 2.84632,7.50008 0.41468,1.87857 0.76893,3.80684 1.06328,5.80353 1.17739,7.98675 2.50547,20.1798 3.06908,29.18137 0.43602,6.96395 -49.77928,30.08758 -112.56635,25.70502 -62.78707,-4.38257 -106.15082,-30.8899 -107.65193,-33.3987 3.22117,-5.24569 3.60083,-11.22752 4.9902,-17.22971 1.26228,-5.45318 1.63073,-16.39291 4.49938,-21.65149 1.94455,-3.56459 5.74751,-7.88473 9.99612,-6.52796 m 193.7539,10.61786 c 11.19246,1.65312 21.88118,1.12188 32.5901,3.2433 14.25914,2.82472 28.55753,6.4762 41.76349,12.55114 13.12728,6.03874 25.45266,14.0764 36.48707,23.40559 6.74956,5.7065 15.95438,10.98918 17.82924,19.62664 1.24087,5.71667 -1.848,12.02949 -5.35284,16.71309 -8.65327,11.56357 -23.21884,17.33384 -35.86055,24.31828 -16.22896,8.96636 -33.26953,16.71931 -50.93313,22.35597 -22.70168,7.24436 -46.32024,11.86 -70.00357,14.49569 -33.50374,3.7286 -67.55463,4.93306 -101.11627,1.76777 -31.04206,-2.92766 -61.35968,-11.37844 -91.57033,-19.09189 -18.49492,-4.72217 -37.3215,-8.94653 -54.80077,-16.61701 -11.90079,-5.22246 -23.72003,-11.34119 -33.58758,-19.79899 -6.70814,-5.74977 -16.1022,-11.6981 -16.79378,-20.50609 -0.94059,-11.97947 9.71572,-22.61131 18.208,-31.1127 14.48457,-14.5001 34.00225,-23.50443 53.03301,-31.1127 21.26968,-8.50336 35.84411,-12.26607 66.9084,-15.67244 m 0.62434,-4.04619 c -19.8338,0.81873 -35.36089,3.25074 -52.15317,8.58171 -23.15951,7.35235 -46.70846,16.51854 -65.58415,31.8198 -13.21242,10.71043 -31.24982,23.29686 -31.28948,40.30508 -0.0367,15.75778 16.3095,27.88858 28.81461,37.47666 23.08258,17.69819 52.82736,24.79995 80.61017,33.41079 21.51479,6.66817 43.86225,10.47411 66.11448,13.96536 20.36638,3.19537 40.91244,5.73247 61.51829,6.36396 29.59261,0.9069 59.45734,0.64198 88.7419,-3.71231 23.48096,-3.49136 46.7436,-9.44401 68.94292,-17.85444 20.40496,-7.73062 41.43358,-15.89911 58.33631,-29.69849 12.01896,-9.81227 29.57114,-20.91116 28.99137,-36.416 -0.7323,-19.584 -23.85877,-31.94903 -39.95153,-43.13351 -11.93308,-8.2935 -26.27636,-12.82553 -40.30509,-16.61701 -20.34827,-5.49943 -54.44302,-9.29304 -62.64361,-8.62797 M 265,477.3622 c -0.27276,1.29403 -0.49447,2.26442 -0.70306,3.35073 -0.2086,1.0863 -0.40407,2.28851 -0.62434,4.04619 -0.22027,1.75768 -0.38722,3.21927 -0.55439,4.81649 -0.16716,1.59723 -0.52205,5.61135 -0.61821,6.78661"
       id="path4202"
       inkscape:connector-curvature="0"
       sodipodi:nodetypes="cccssssccccccccccccccccccccccssssszcssccaaaaaaaaaaaaaaaccaaaaaaaaaaaaaccsssc" />
  </g>
  <g
     inkscape:groupmode="layer"
     id="layer6"
     inkscape:label="Text"
     style="display:inline"
     transform="translate(-108.4227,-246.52398)"
     sodipodi:insensitive="true">
    <g
       transform="translate(5,-1.9999999)"
       inkscape:transform-center-x="16.5"
       inkscape:transform-center-y="-9.4999999"
       style="font-style:normal;font-variant:normal;font-weight:normal;font-stretch:normal;font-size:47.5px;line-height:125%;font-family:'Tomson Talks';-inkscape-font-specification:'Tomson Talks, Normal';text-align:start;letter-spacing:0px;word-spacing:0px;writing-mode:lr-tb;text-anchor:start;fill:#ffe73c;fill-opacity:1;stroke:#000000;stroke-width:1px;stroke-linecap:butt;stroke-linejoin:miter;stroke-opacity:1"
       id="text4920">
      <path
         id="path4970"
         style="font-style:normal;font-variant:normal;font-weight:normal;font-stretch:normal;font-size:47.5px;line-height:125%;font-family:'Tomson Talks';-inkscape-font-specification:'Tomson Talks, Normal';text-align:start;writing-mode:lr-tb;text-anchor:start;fill:#ffe73c;fill-opacity:1;stroke:#000000;stroke-opacity:1"
         d="m 431.58327,546.18842 c -0.22526,-6.02334 -6.47098,-13.28635 -4.0735,-18.33578 4.17984,-1.19789 11.00101,-7.50325 13.96537,-3.97213 -4.99422,1.9488 -16.23074,6.64187 -8.95787,10.50525 1.94597,-3.08644 9.84473,-2.38152 4.55553,0.41027 -5.51808,-0.0711 -5.06556,8.52148 -2.21243,8.43323 2.7695,-1.62776 11.92268,-7.64392 11.92502,-2.79129 -5.68465,0.45973 -10.44317,6.79292 -15.1952,6.65163 l -0.007,-0.90122 8e-5,4e-5 z m -10.07172,-9.95849 c 8.48338,-1.18857 8.76087,10.50778 1.89327,12.80748 -5.20331,2.99692 -14.28321,2.05773 -14.92227,-5.22753 -1.3353,-7.67961 5.63202,-16.51441 13.70857,-15.04583 3.57194,2.7855 -0.25935,3.79366 -2.65283,2.23396 -7.09319,1.23507 -12.68808,16.35974 -2.2964,16.39673 6.36464,1.5498 12.15228,-10.05696 2.8872,-8.89978 -1.28743,-0.93487 0.42418,-2.1509 1.38246,-2.26503 z m -33.70881,16.68487 c 0.31849,-5.65303 -1.52055,-12.14485 0.68793,-17.31553 6.30437,0.76067 8.8672,8.59964 13.98009,11.859 2.25239,-4.09596 -0.95676,-14.21589 3.926,-14.64364 0.39613,4.5182 -0.73012,9.2101 -0.93397,13.7962 0.8091,5.3774 -4.20308,7.24845 -6.86249,1.86289 -2.95301,-2.77216 -9.75284,-13.94715 -8.4857,-4.09044 -0.35233,1.92096 1.77502,11.88071 -2.31186,8.53152 z m -5.90767,3.1909 c -0.20437,-6.20479 -3.60479,-14.61066 -0.10121,-19.54967 3.55571,4.1087 0.81015,12.87897 3.16115,18.59715 -0.45941,0.87811 -2.34315,2.38941 -3.05994,0.95252 z m -20.53911,1.65004 c -0.44009,-6.32301 -1.85823,-13.6497 -1.22989,-19.39993 6.35675,-3.19193 18.14639,-3.45155 18.98582,5.76768 0.31483,7.8812 -8.28633,10.4908 -13.62188,14.13569 -1.3603,1.34966 -3.60119,1.90025 -4.13405,-0.50344 z m 2.99173,-1.70275 c 5.50081,-2.95773 14.50734,-7.63358 10.36813,-15.21118 -4.56137,-5.56398 -14.5606,-1.3372 -11.11129,6.03599 0.20004,3.06202 0.45358,6.12039 0.74316,9.17519 z m -23.56801,-1.15763 c 1.60414,-5.99057 -3.4843,-18.08814 5.7356,-18.31039 7.14246,-3.26238 13.38956,6.80122 4.64977,9.34316 -2.49777,1.17802 3.05771,3.51733 4.22508,5.22387 3.77421,1.43946 3.49656,8.25564 -0.99855,3.77098 -3.67239,-6.03364 -11.85449,-10.67884 -10.62468,-0.21435 -0.59383,0.52526 -2.67118,1.39135 -2.98722,0.18673 z m 3.49198,-9.05514 c 4.54005,0.76394 12.50562,-7.35519 4.40118,-7.66324 -5.94256,-0.88603 -4.04768,3.92812 -4.40118,7.66324 z m -23.96833,6.80507 c 2.59593,-5.4399 0.4344,-14.77198 4.9015,-18.132 4.25837,0.8788 13.22676,-1.54061 14.21374,2.96295 -5.32824,-0.59163 -17.4594,-1.64953 -12.81025,5.14794 3.15612,-1.83085 9.82555,2.45937 3.84481,2.47757 -4.8548,-2.62395 -8.44183,5.1972 -5.87364,6.44319 3.20863,-0.15649 14.10847,-1.23744 11.85841,3.06199 -5.24872,-2.23103 -12.40298,1.17026 -16.54668,-1.16024 l 0.41209,-0.80152 2e-5,1.2e-4 z m -6.30864,-1.21454 c 1.64696,-5.98573 0.89547,-15.02205 5.70742,-18.6983 2.17555,4.9791 -3.05,12.5388 -2.50267,18.69715 -0.6994,0.70216 -2.94694,1.58594 -3.20475,10e-4 z m -4.90141,-14.0003 c 7.97437,3.12896 2.47432,13.45522 -4.63773,12.08749 -6.0044,0.0567 -13.45392,-5.21883 -10.4344,-11.8796 2.60653,-7.34612 13.01359,-11.6229 19.3291,-6.37873 1.7444,4.18043 -2.08827,3.17757 -3.40789,0.64399 -6.78602,-2.40605 -19.08502,8.02436 -10.04974,13.15781 4.78422,4.4745 15.52412,-2.79641 6.88418,-6.33639 -0.66262,-1.44624 1.42519,-1.66607 2.31648,-1.29457 z m -34.04343,0.008 c 5.52168,-3.46909 8.3355,-13.72829 14.6989,-13.68217 2.6593,6.31721 1.90669,14.05111 2.25273,20.91596 -3.36114,3.73269 -3.29923,-3.81831 -3.43962,-6.09036 -2.51127,-3.676 -8.90985,-3.59009 -11.27988,0.53387 -1.90899,2.49449 -4.92029,0.98413 -2.23213,-1.6773 z m 7.15639,-3.86864 c 4.48263,2.0266 7.81618,0.46707 5.63623,-4.45088 -0.13274,-3.43819 -4.05684,3.69794 -5.63623,4.45088 z m -28.55561,-3.37711 c 3.30896,-4.9604 3.79074,-12.97134 8.70468,-15.99749 2.1764,2.93139 2.70071,10.17191 7.55252,6.93645 2.86788,-0.58401 5.7845,-2.63965 8.65008,-1.89123 -0.66401,6.19917 -5.33886,11.79467 -7.39147,17.81286 -6.15097,4.01846 -0.56676,-6.13689 0.8693,-8.60644 1.68252,-3.3501 4.73616,-8.003 -0.74887,-5.02083 -2.46962,0.81026 -6.3808,2.96017 -7.67512,-0.62424 -2.5697,-7.10645 -4.43294,3.58005 -6.52471,6.28365 -0.11583,1.87004 -3.83189,4.58757 -3.43641,1.10727 z"
         inkscape:connector-curvature="0" />
    </g>
  </g>
</svg>
